<?xml version="1.0" standalone="no"?>
<!DOCTYPE svg PUBLIC "-//W3C//DTD SVG 20010904//EN"
 "http://www.w3.org/TR/2001/REC-SVG-20010904/DTD/svg10.dtd">
<svg version="1.0" xmlns="http://www.w3.org/2000/svg"
 width="1024.000000pt" height="1020.000000pt" viewBox="0 0 1024.000000 1020.000000"
 preserveAspectRatio="xMidYMid meet">
<metadata>
Created by potrace 1.16, written by Peter Selinger 2001-2019
</metadata>
<g transform="translate(0.000000,1020.000000) scale(0.100000,-0.100000)"
fill="#000000" stroke="none">
<path d="M6500 7167 c-165 -100 -415 -249 -465 -277 -29 -16 -461 -273 -773
-459 -85 -50 -155 -91 -157 -91 -6 0 -390 -231 -390 -234 0 -2 32 -30 70 -61
39 -31 81 -67 95 -79 51 -44 172 -136 180 -136 4 0 63 46 131 102 687 562
1306 894 1744 935 260 24 821 -6 813 -43 -8 -36 -478 -510 -743 -750 -154
-139 -533 -462 -651 -554 -54 -42 -279 -224 -284 -230 -13 -15 -320 -260 -328
-262 -5 -2 -54 40 -109 92 -157 150 -199 188 -353 321 -727 628 -1403 1050
-1962 1222 -177 55 -215 64 -353 82 -275 36 -560 0 -882 -114 -384 -136 -748
-336 -1135 -624 l-137 -102 47 -7 c26 -4 128 -14 227 -23 215 -18 231 -20 364
-46 195 -39 432 -120 741 -256 157 -69 480 -230 500 -249 17 -17 39 6 -335
-349 -110 -104 -242 -231 -295 -281 -52 -50 -107 -103 -123 -116 l-27 -26 52
-6 c29 -4 116 -20 193 -37 77 -16 151 -32 165 -34 79 -17 406 -118 465 -145
11 -5 49 -21 85 -35 259 -105 458 -209 835 -438 10 -7 121 -80 245 -162 269
-180 425 -291 790 -564 151 -113 278 -207 281 -209 11 -5 327 342 468 513 150
182 321 394 321 398 0 5 -114 92 -200 152 -30 21 -59 42 -65 47 -27 23 -454
329 -615 442 -153 107 -708 475 -733 487 -15 7 -27 16 -27 21 0 4 -5 8 -10 8
-6 0 -52 26 -103 58 -116 74 -437 265 -542 324 -44 25 -120 67 -170 95 -205
114 -559 300 -853 448 -172 87 -314 161 -317 165 -14 22 138 57 308 71 92 8
191 8 351 0 l223 -11 89 -41 c49 -22 114 -52 144 -66 82 -38 499 -246 561
-281 30 -16 86 -46 124 -67 39 -21 84 -47 100 -57 17 -10 37 -21 45 -25 34
-16 255 -146 398 -234 84 -52 160 -99 170 -104 60 -36 394 -255 507 -332 49
-34 128 -88 175 -120 47 -32 90 -62 97 -68 7 -5 41 -29 75 -53 102 -70 572
-407 635 -455 32 -24 70 -52 85 -61 l28 -18 117 98 c186 158 425 354 458 377
17 12 35 26 40 33 29 33 904 696 1314 994 79 58 198 145 265 194 66 49 162
118 211 153 96 69 137 104 100 85 -11 -5 -54 -26 -95 -45 -41 -19 -118 -55
-170 -80 -52 -24 -126 -59 -163 -76 -432 -202 -832 -404 -1062 -539 -33 -19
-73 -43 -90 -52 -187 -109 -401 -250 -633 -419 -95 -69 -181 -132 -191 -139
-16 -11 -29 -4 -103 55 -48 38 -84 71 -82 75 2 3 73 55 157 114 140 99 465
340 477 353 3 3 52 44 110 90 113 92 278 233 375 321 162 148 443 439 541 560
16 19 31 37 34 40 3 3 35 43 71 90 94 122 198 279 260 395 l54 100 245 62
c135 34 344 87 465 118 121 32 258 66 305 78 63 15 80 22 64 27 -11 4 -139 11
-284 15 -146 4 -341 10 -435 14 -93 4 -579 8 -1080 9 l-910 2 -155 -93z
m-3155 -2102 c406 -140 792 -349 990 -537 135 -127 217 -248 305 -448 41 -91
128 -326 143 -385 3 -11 16 -58 30 -105 28 -97 42 -170 32 -170 -4 0 -30 19
-58 43 -29 23 -63 51 -76 62 -13 11 -38 32 -55 46 -260 218 -586 457 -811 593
-117 71 -344 189 -435 226 -30 12 -68 28 -85 35 -138 58 -420 130 -640 164
-64 10 -110 22 -110 28 0 6 34 38 75 71 41 33 178 143 305 245 l230 185 40
-13 c22 -7 76 -25 120 -40z"/>
</g>
</svg>
